<?xml version="1.0" encoding="UTF-8"?>
<svg xmlns="http://www.w3.org/2000/svg" xmlns:xlink="http://www.w3.org/1999/xlink" viewBox="0 0 30 30" width="30px" height="30px">
<g id="surface729395">
<path style=" stroke:none;fill-rule:nonzero;fill:rgb(16.862746%,22.352941%,27.058825%);fill-opacity:1;" d="M 23.203125 15 C 23.203125 19.53125 19.53125 23.203125 15 23.203125 C 10.46875 23.203125 6.796875 19.53125 6.796875 15 C 6.796875 10.46875 10.46875 6.796875 15 6.796875 C 19.53125 6.796875 23.203125 10.46875 23.203125 15 Z M 23.203125 15 "/>
<path style=" stroke:none;fill-rule:nonzero;fill:rgb(100%,100%,100%);fill-opacity:1;" d="M 15 23.789062 C 10.152344 23.789062 6.210938 19.847656 6.210938 15 C 6.210938 10.152344 10.152344 6.210938 15 6.210938 C 19.847656 6.210938 23.789062 10.152344 23.789062 15 C 23.789062 19.847656 19.847656 23.789062 15 23.789062 Z M 15 7.382812 C 10.800781 7.382812 7.382812 10.800781 7.382812 15 C 7.382812 19.199219 10.800781 22.617188 15 22.617188 C 19.199219 22.617188 22.617188 19.199219 22.617188 15 C 22.617188 10.800781 19.199219 7.382812 15 7.382812 Z M 15 7.382812 "/>
<path style=" stroke:none;fill-rule:nonzero;fill:rgb(100%,100%,100%);fill-opacity:1;" d="M 9.726562 15 C 9.402344 15 9.140625 14.738281 9.140625 14.414062 C 9.140625 13.398438 9.722656 12.105469 10.660156 11.046875 C 11.746094 9.816406 13.078125 9.140625 14.414062 9.140625 C 14.738281 9.140625 15 9.402344 15 9.726562 C 15 10.050781 14.738281 10.3125 14.414062 10.3125 C 12.167969 10.3125 10.3125 13.027344 10.3125 14.414062 C 10.3125 14.738281 10.050781 15 9.726562 15 Z M 9.726562 15 "/>
<path style=" stroke:none;fill-rule:nonzero;fill:rgb(100%,100%,100%);fill-opacity:1;" d="M 15 5.039062 C 14.675781 5.039062 14.414062 4.777344 14.414062 4.453125 L 14.414062 1.523438 C 14.414062 1.199219 14.675781 0.9375 15 0.9375 C 15.324219 0.9375 15.585938 1.199219 15.585938 1.523438 L 15.585938 4.453125 C 15.585938 4.777344 15.324219 5.039062 15 5.039062 Z M 15 5.039062 "/>
<path style=" stroke:none;fill-rule:nonzero;fill:rgb(100%,100%,100%);fill-opacity:1;" d="M 15 29.0625 C 14.675781 29.0625 14.414062 28.800781 14.414062 28.476562 L 14.414062 25.546875 C 14.414062 25.222656 14.675781 24.960938 15 24.960938 C 15.324219 24.960938 15.585938 25.222656 15.585938 25.546875 L 15.585938 28.476562 C 15.585938 28.800781 15.324219 29.0625 15 29.0625 Z M 15 29.0625 "/>
<path style=" stroke:none;fill-rule:nonzero;fill:rgb(100%,100%,100%);fill-opacity:1;" d="M 22.457031 8.128906 C 22.308594 8.128906 22.15625 8.070312 22.042969 7.957031 C 21.816406 7.726562 21.816406 7.355469 22.042969 7.128906 L 24.113281 5.054688 C 24.34375 4.828125 24.714844 4.828125 24.945312 5.054688 C 25.171875 5.285156 25.171875 5.65625 24.945312 5.886719 L 22.871094 7.957031 C 22.757812 8.070312 22.609375 8.128906 22.457031 8.128906 Z M 22.457031 8.128906 "/>
<path style=" stroke:none;fill-rule:nonzero;fill:rgb(100%,100%,100%);fill-opacity:1;" d="M 5.472656 25.113281 C 5.320312 25.113281 5.171875 25.058594 5.054688 24.945312 C 4.828125 24.714844 4.828125 24.34375 5.054688 24.113281 L 7.128906 22.042969 C 7.355469 21.816406 7.726562 21.816406 7.957031 22.042969 C 8.183594 22.273438 8.183594 22.644531 7.957031 22.871094 L 5.886719 24.945312 C 5.769531 25.058594 5.621094 25.113281 5.472656 25.113281 Z M 5.472656 25.113281 "/>
<path style=" stroke:none;fill-rule:nonzero;fill:rgb(100%,100%,100%);fill-opacity:1;" d="M 28.476562 15.585938 L 25.546875 15.585938 C 25.222656 15.585938 24.960938 15.324219 24.960938 15 C 24.960938 14.675781 25.222656 14.414062 25.546875 14.414062 L 28.476562 14.414062 C 28.800781 14.414062 29.0625 14.675781 29.0625 15 C 29.0625 15.324219 28.800781 15.585938 28.476562 15.585938 Z M 28.476562 15.585938 "/>
<path style=" stroke:none;fill-rule:nonzero;fill:rgb(100%,100%,100%);fill-opacity:1;" d="M 4.453125 15.585938 L 1.523438 15.585938 C 1.199219 15.585938 0.9375 15.324219 0.9375 15 C 0.9375 14.675781 1.199219 14.414062 1.523438 14.414062 L 4.453125 14.414062 C 4.777344 14.414062 5.039062 14.675781 5.039062 15 C 5.039062 15.324219 4.777344 15.585938 4.453125 15.585938 Z M 4.453125 15.585938 "/>
<path style=" stroke:none;fill-rule:nonzero;fill:rgb(100%,100%,100%);fill-opacity:1;" d="M 24.527344 25.113281 C 24.378906 25.113281 24.230469 25.058594 24.113281 24.945312 L 22.042969 22.871094 C 21.816406 22.644531 21.816406 22.273438 22.042969 22.042969 C 22.273438 21.816406 22.644531 21.816406 22.871094 22.042969 L 24.945312 24.113281 C 25.171875 24.34375 25.171875 24.714844 24.945312 24.945312 C 24.828125 25.058594 24.679688 25.113281 24.527344 25.113281 Z M 24.527344 25.113281 "/>
<path style=" stroke:none;fill-rule:nonzero;fill:rgb(100%,100%,100%);fill-opacity:1;" d="M 7.542969 8.128906 C 7.390625 8.128906 7.242188 8.070312 7.128906 7.957031 L 5.054688 5.886719 C 4.828125 5.65625 4.828125 5.285156 5.054688 5.054688 C 5.285156 4.828125 5.65625 4.828125 5.886719 5.054688 L 7.957031 7.128906 C 8.183594 7.355469 8.183594 7.726562 7.957031 7.957031 C 7.84375 8.070312 7.691406 8.128906 7.542969 8.128906 Z M 7.542969 8.128906 "/>
</g>
</svg>
